<svg xmlns="http://www.w3.org/2000/svg" width="64" height="64" viewBox="0 0 64 64" role="img" aria-label="Feliz Aniversário">
  <defs>
    <linearGradient id="g" x1="0" x2="1" y1="0" y2="1">
      <stop offset="0%" stop-color="#ff5ea8"/>
      <stop offset="100%" stop-color="#7c4dff"/>
    </linearGradient>
    <linearGradient id="cakeGrad" x1="0" x2="0" y1="0" y2="1">
      <stop offset="0%" stop-color="#ffd4e6"/>
      <stop offset="100%" stop-color="#ffb3d0"/>
    </linearGradient>
    <radialGradient id="flame" cx="50%" cy="50%" r="50%">
      <stop offset="0%" stop-color="#fff2a8"/>
      <stop offset="100%" stop-color="#ff9800"/>
    </radialGradient>
  </defs>
  <rect x="0" y="0" width="64" height="64" rx="14" fill="url(#g)"/>
  <!-- Confetes -->
  <circle cx="10" cy="12" r="2" fill="#ffd166"/>
  <circle cx="54" cy="16" r="2" fill="#4be3c2"/>
  <circle cx="48" cy="10" r="1.8" fill="#ffffff"/>
  <circle cx="14" cy="50" r="1.6" fill="#ffffff"/>
  <circle cx="50" cy="48" r="1.6" fill="#ffd166"/>
  <circle cx="18" cy="18" r="1.8" fill="#7c4dff" opacity=".9"/>
  <!-- Bolo -->
  <g transform="translate(12,22)">
    <!-- Velas -->
    <rect x="9" y="0" width="4" height="10" rx="1" fill="#ffffff" opacity=".9"/>
    <rect x="23" y="0" width="4" height="10" rx="1" fill="#ffffff" opacity=".9"/>
    <circle cx="11" cy="-2.5" r="2.5" fill="url(#flame)"/>
    <circle cx="25" cy="-2.5" r="2.5" fill="url(#flame)"/>
    <!-- Cobertura -->
    <path d="M0,16 h40 v10 a4,4 0 0 1 -4,4 h-32 a4,4 0 0 1 -4,-4 z" fill="url(#cakeGrad)"/>
    <!-- Ondas da cobertura -->
    <path d="M0,16 c4,3 8,-3 12,0 c4,3 8,-3 12,0 c4,3 8,-3 12,0 v4 h-36z" fill="#fff" opacity=".9"/>
    <!-- Base -->
    <rect x="4" y="30" width="32" height="6" rx="3" fill="#5a2bbf" opacity=".5"/>
  </g>
</svg>
